<svg width="56" height="56" viewBox="0 0 56 56" fill="none" xmlns="http://www.w3.org/2000/svg">
<path d="M51.723 0.2975C51.9618 0.457231 52.1576 0.673293 52.2931 0.926611C52.4286 1.17993 52.4997 1.46271 52.5 1.75V28C52.4999 28.3495 52.3952 28.6909 52.1993 28.9804C52.0035 29.2698 51.7254 29.494 51.401 29.624L50.75 28L51.401 29.624L51.3905 29.6275L51.3695 29.638L51.289 29.6695C50.8289 29.8524 50.3656 30.0274 49.8995 30.1945C48.9755 30.527 47.691 30.975 46.235 31.4195C43.379 32.3015 39.6585 33.25 36.75 33.25C33.7855 33.25 31.332 32.27 29.197 31.4125L29.099 31.3775C26.88 30.485 24.99 29.75 22.75 29.75C20.3 29.75 17.017 30.555 14.2205 31.4195C12.9684 31.8097 11.7277 32.2357 10.5 32.697V54.25C10.5 54.7141 10.3156 55.1592 9.98744 55.4874C9.65925 55.8156 9.21413 56 8.75 56C8.28587 56 7.84075 55.8156 7.51256 55.4874C7.18437 55.1592 7 54.7141 7 54.25V1.75C7 1.28587 7.18437 0.840752 7.51256 0.512563C7.84075 0.184374 8.28587 0 8.75 0C9.21413 0 9.65925 0.184374 9.98744 0.512563C10.3156 0.840752 10.5 1.28587 10.5 1.75V2.737C11.291 2.4605 12.236 2.142 13.265 1.827C16.121 0.952 19.845 0 22.75 0C25.69 0 28.084 0.9695 30.1735 1.8165L30.324 1.8795C32.501 2.758 34.398 3.5 36.75 3.5C39.2 3.5 42.483 2.695 45.2795 1.8305C46.8731 1.33284 48.448 0.777139 50.001 0.1645L50.0675 0.14L50.0815 0.133H50.085L51.723 0.2975ZM49 4.2735C48.23 4.5465 47.32 4.858 46.319 5.166C43.484 6.048 39.767 6.9965 36.75 6.9965C33.649 6.9965 31.178 5.9955 29.0395 5.1275L29.0115 5.117C26.817 4.235 24.9865 3.5 22.75 3.5C20.4085 3.5 17.129 4.3015 14.2975 5.173C13.0204 5.56704 11.7541 5.99536 10.5 6.4575V28.973C11.27 28.7 12.18 28.3885 13.181 28.0805C16.016 27.195 19.733 26.25 22.75 26.25C25.7145 26.25 28.168 27.23 30.303 28.0875L30.401 28.1225C32.62 29.015 34.51 29.75 36.75 29.75C39.088 29.75 42.371 28.9485 45.2025 28.077C46.4796 27.6829 47.7459 27.2546 49 26.7925V4.277V4.2735Z" fill="#444E66"/>
</svg>
