<svg width="26" height="26" viewBox="0 0 26 26" fill="none" xmlns="http://www.w3.org/2000/svg">
<path fill-rule="evenodd" clip-rule="evenodd" d="M7.70949 0.243504C9.07799 0.180504 9.51433 0.166504 13.0003 0.166504C16.4863 0.166504 16.9227 0.181671 18.29 0.243504C19.6573 0.305337 20.5907 0.523504 21.4073 0.839671C22.2625 1.16284 23.0383 1.668 23.68 2.32134C24.3333 2.96184 24.8373 3.7365 25.1593 4.59284C25.4767 5.4095 25.6937 6.34284 25.7567 7.70784C25.8197 9.07867 25.8337 9.515 25.8337 12.9998C25.8337 16.4858 25.8185 16.9222 25.7567 18.2907C25.6948 19.6557 25.4767 20.589 25.1593 21.4057C24.8373 22.2621 24.3325 23.0381 23.68 23.6795C23.0383 24.3328 22.2625 24.8368 21.4073 25.1588C20.5907 25.4762 19.6573 25.6932 18.2923 25.7562C16.9227 25.8192 16.4863 25.8332 13.0003 25.8332C9.51433 25.8332 9.07799 25.818 7.70949 25.7562C6.34449 25.6943 5.41116 25.4762 4.59449 25.1588C3.73807 24.8368 2.96212 24.332 2.32066 23.6795C1.66777 23.0386 1.16253 22.263 0.840159 21.4068C0.523992 20.5902 0.306992 19.6568 0.243992 18.2918C0.180992 16.921 0.166992 16.4847 0.166992 12.9998C0.166992 9.51384 0.182159 9.0775 0.243992 7.71017C0.305826 6.34284 0.523992 5.4095 0.840159 4.59284C1.163 3.7366 1.66863 2.96104 2.32183 2.32017C2.96237 1.66742 3.73754 1.16219 4.59333 0.839671C5.40999 0.523504 6.34333 0.306504 7.70833 0.243504H7.70949ZM18.1862 2.5535C16.8328 2.49167 16.4268 2.47884 13.0003 2.47884C9.57382 2.47884 9.16782 2.49167 7.81449 2.5535C6.56266 2.61067 5.88366 2.8195 5.43099 2.99567C4.83249 3.229 4.40433 3.5055 3.95516 3.95467C3.52938 4.3689 3.2017 4.87317 2.99616 5.4305C2.81999 5.88317 2.61116 6.56217 2.55399 7.814C2.49216 9.16734 2.47933 9.57334 2.47933 12.9998C2.47933 16.4263 2.49216 16.8323 2.55399 18.1857C2.61116 19.4375 2.81999 20.1165 2.99616 20.5692C3.20149 21.1257 3.52933 21.6308 3.95516 22.045C4.36933 22.4708 4.87449 22.7987 5.43099 23.004C5.88366 23.1802 6.56266 23.389 7.81449 23.4462C9.16782 23.508 9.57266 23.5208 13.0003 23.5208C16.428 23.5208 16.8328 23.508 18.1862 23.4462C19.438 23.389 20.117 23.1802 20.5697 23.004C21.1682 22.7707 21.5963 22.4942 22.0455 22.045C22.4713 21.6308 22.7992 21.1257 23.0045 20.5692C23.1807 20.1165 23.3895 19.4375 23.4467 18.1857C23.5085 16.8323 23.5213 16.4263 23.5213 12.9998C23.5213 9.57334 23.5085 9.16734 23.4467 7.814C23.3895 6.56217 23.1807 5.88317 23.0045 5.4305C22.7712 4.832 22.4947 4.40384 22.0455 3.95467C21.6312 3.52892 21.127 3.20125 20.5697 2.99567C20.117 2.8195 19.438 2.61067 18.1862 2.5535ZM11.3612 16.956C12.2766 17.3371 13.2959 17.3885 14.2451 17.1015C15.1942 16.8145 16.0143 16.2069 16.5652 15.3825C17.1161 14.558 17.3637 13.5679 17.2657 12.5811C17.1677 11.5944 16.7302 10.6723 16.0278 9.97234C15.5801 9.52489 15.0387 9.18228 14.4427 8.96918C13.8467 8.75607 13.2108 8.67776 12.5809 8.73989C11.951 8.80202 11.3427 9.00304 10.7998 9.32849C10.2569 9.65393 9.79286 10.0957 9.44118 10.622C9.0895 11.1483 8.85888 11.746 8.76593 12.3721C8.67298 12.9982 8.72 13.6372 8.90362 14.2429C9.08724 14.8487 9.40289 15.4062 9.82783 15.8753C10.2528 16.3445 10.7765 16.7136 11.3612 16.956ZM8.33599 8.3355C8.94852 7.72297 9.6757 7.23709 10.476 6.90559C11.2763 6.57409 12.1341 6.40347 13.0003 6.40347C13.8666 6.40347 14.7243 6.57409 15.5246 6.90559C16.325 7.23709 17.0521 7.72297 17.6647 8.3355C18.2772 8.94803 18.7631 9.67521 19.0946 10.4755C19.4261 11.2758 19.5967 12.1336 19.5967 12.9998C19.5967 13.8661 19.4261 14.7238 19.0946 15.5242C18.7631 16.3245 18.2772 17.0516 17.6647 17.6642C16.4276 18.9012 14.7498 19.5962 13.0003 19.5962C11.2509 19.5962 9.57305 18.9012 8.33599 17.6642C7.09893 16.4271 6.40396 14.7493 6.40396 12.9998C6.40396 11.2504 7.09893 9.57256 8.33599 8.3355ZM21.0597 7.38584C21.2114 7.24265 21.333 7.07046 21.417 6.87947C21.5011 6.68848 21.5459 6.48257 21.549 6.27392C21.552 6.06528 21.5132 5.85814 21.4347 5.66478C21.3563 5.47142 21.2398 5.29577 21.0923 5.14822C20.9447 5.00067 20.7691 4.88422 20.5757 4.80577C20.3824 4.72733 20.1752 4.68848 19.9666 4.69152C19.7579 4.69456 19.552 4.73943 19.361 4.82348C19.17 4.90753 18.9978 5.02905 18.8547 5.18084C18.5762 5.47604 18.4237 5.86815 18.4296 6.27392C18.4356 6.6797 18.5994 7.0672 18.8863 7.35415C19.1733 7.64111 19.5608 7.80494 19.9666 7.81085C20.3723 7.81677 20.7645 7.66431 21.0597 7.38584Z" fill="white"/>
</svg>
