<svg width="56" height="56" viewBox="0 0 56 56" fill="none" xmlns="http://www.w3.org/2000/svg">
<path d="M7 28H28V31.5H7V28Z" fill="#444E66"/>
<path d="M3.5 19.25H21V22.75H3.5V19.25Z" fill="#444E66"/>
<path d="M52.3581 29.0605L47.1081 16.8105C46.9734 16.4956 46.7491 16.2273 46.4632 16.0388C46.1773 15.8502 45.8423 15.7498 45.4999 15.75H40.2499V12.25C40.2499 11.7859 40.0655 11.3408 39.7373 11.0126C39.4091 10.6844 38.964 10.5 38.4999 10.5H10.4999V14H36.7499V35.973C35.9524 36.436 35.2546 37.0524 34.6965 37.7864C34.1384 38.5205 33.7312 39.3578 33.4984 40.25H22.5014C22.0754 38.6003 21.0625 37.1627 19.6523 36.2064C18.2422 35.2502 16.5318 34.8411 14.8416 35.0558C13.1514 35.2705 11.5976 36.0942 10.4713 37.3726C9.34501 38.651 8.72363 40.2962 8.72363 42C8.72363 43.7038 9.34501 45.349 10.4713 46.6274C11.5976 47.9058 13.1514 48.7295 14.8416 48.9442C16.5318 49.1589 18.2422 48.7498 19.6523 47.7936C21.0625 46.8373 22.0754 45.3997 22.5014 43.75H33.4984C33.879 45.2519 34.7497 46.584 35.9725 47.5356C37.1953 48.4871 38.7004 49.0037 40.2499 49.0037C41.7993 49.0037 43.3044 48.4871 44.5272 47.5356C45.75 46.584 46.6207 45.2519 47.0014 43.75H50.7499C51.214 43.75 51.6591 43.5656 51.9873 43.2374C52.3155 42.9093 52.4999 42.4641 52.4999 42V29.75C52.4999 29.5129 52.4517 29.2783 52.3581 29.0605ZM15.7499 45.5C15.0576 45.5 14.3809 45.2947 13.8054 44.9101C13.2298 44.5256 12.7812 43.9789 12.5163 43.3394C12.2514 42.6999 12.1821 41.9961 12.3171 41.3172C12.4522 40.6383 12.7855 40.0146 13.275 39.5251C13.7645 39.0356 14.3881 38.7023 15.067 38.5673C15.746 38.4322 16.4497 38.5015 17.0892 38.7664C17.7288 39.0313 18.2754 39.4799 18.66 40.0555C19.0446 40.6311 19.2499 41.3078 19.2499 42C19.2489 42.928 18.8799 43.8177 18.2237 44.4739C17.5675 45.13 16.6778 45.4991 15.7499 45.5ZM40.2499 19.25H44.3449L48.0969 28H40.2499V19.25ZM40.2499 45.5C39.5576 45.5 38.8809 45.2947 38.3054 44.9101C37.7298 44.5256 37.2812 43.9789 37.0163 43.3394C36.7514 42.6999 36.6821 41.9961 36.8171 41.3172C36.9522 40.6383 37.2855 40.0146 37.775 39.5251C38.2645 39.0356 38.8881 38.7023 39.567 38.5673C40.246 38.4322 40.9497 38.5015 41.5892 38.7664C42.2288 39.0313 42.7754 39.4799 43.16 40.0555C43.5446 40.6311 43.7499 41.3078 43.7499 42C43.7489 42.928 43.3799 43.8177 42.7237 44.4739C42.0675 45.13 41.1778 45.4991 40.2499 45.5ZM48.9999 40.25H47.0014C46.6159 38.751 45.7439 37.4223 44.522 36.4722C43.3002 35.5221 41.7976 35.0043 40.2499 35V31.5H48.9999V40.25Z" fill="#444E66"/>
</svg>
